<svg width="74" height="105" viewBox="0 0 74 105" fill="none" xmlns="http://www.w3.org/2000/svg">
<path d="M58.928 104.772C58.928 135.365 34.273 160.165 3.85952 160.165C-26.554 160.165 -51.209 135.365 -51.209 104.772C-51.209 74.1797 -26.554 49.3794 3.85952 49.3794C34.273 49.3794 58.928 74.1797 58.928 104.772Z" fill="#FACC15"/>
<path d="M73.6599 20.1108C73.6599 31.2177 64.7087 40.2216 53.6668 40.2216C42.625 40.2216 33.6738 31.2177 33.6738 20.1108C33.6738 9.00392 42.625 0 53.6668 0C64.7087 0 73.6599 9.00392 73.6599 20.1108Z" fill="white"/>
<path fill-rule="evenodd" clip-rule="evenodd" d="M53.6668 38.0101C63.4751 38.0101 71.4483 30.0086 71.4483 20.1108C71.4483 10.213 63.4751 2.21154 53.6668 2.21154C43.8586 2.21154 35.8854 10.213 35.8854 20.1108C35.8854 30.0086 43.8586 38.0101 53.6668 38.0101ZM53.6668 40.2216C64.7087 40.2216 73.6599 31.2177 73.6599 20.1108C73.6599 9.00392 64.7087 0 53.6668 0C42.625 0 33.6738 9.00392 33.6738 20.1108C33.6738 31.2177 42.625 40.2216 53.6668 40.2216Z" fill="#BFDBFE"/>
</svg>
