<svg width="8" height="8" viewBox="0 0 8 8" fill="none" xmlns="http://www.w3.org/2000/svg">
<path d="M0.686721 4.7765C0.153221 4.9194 -0.17348 5.4775 0.0970204 5.959C0.38172 6.4658 0.775521 6.9081 1.25462 7.2514C2.00682 7.7904 2.92262 8.052 3.84612 7.9914C4.76952 7.9309 5.64342 7.5521 6.31882 6.9195C6.99432 6.2869 7.42942 5.4396 7.55022 4.5221C7.67102 3.6046 7.47002 2.6736 6.98132 1.8877C6.49262 1.1019 5.74652 0.509798 4.87022 0.212298C3.99392 -0.0852016 3.04162 -0.0696017 2.17552 0.256398C1.62392 0.463998 1.12912 0.789298 0.722921 1.2051C0.337021 1.6002 0.508121 2.2239 0.986421 2.5L1.49372 2.7929C2.26522 3.2384 2.11312 4.3943 1.25252 4.6249L0.686721 4.7765Z" fill="#67E8F9"/>
</svg>
