<svg width="6" height="3" viewBox="0 0 6 3" fill="none" xmlns="http://www.w3.org/2000/svg">
<path d="M0.826401 0.56435C0.826401 0.61565 0.826401 0.67978 0.813301 0.71826C0.747701 1.21847 0.747695 1.71868 0.786995 2.23172C0.813295 2.35998 0.839496 2.48824 0.944496 2.59085C1.115 2.78323 1.3773 2.74476 1.4823 2.51389C1.5348 2.39846 1.5348 2.28302 1.5085 2.16759C1.3773 1.6802 1.3511 1.16717 1.338 0.66695C1.338 0.6413 1.338 0.60282 1.338 0.56435C1.4823 0.55152 1.6135 0.53869 1.7315 0.53869C1.8234 0.52587 1.9021 0.51304 1.9677 0.47456C2.1644 0.37196 2.1644 0.15392 1.9545 0.0513101C1.8758 0.0128301 1.7709 0 1.6791 0C1.3511 0.01283 1.0232 0.0128298 0.695198 0.0128298C0.577198 0.0128298 0.459096 0.0256598 0.340996 0.0384798C0.275396 0.0513098 0.196702 0.0513099 0.144302 0.0897899C0.0524024 0.12826 0 0.19239 0 0.28217C0.0131 0.37196 0.0524024 0.42326 0.144302 0.46174C0.196702 0.50022 0.262296 0.51304 0.327896 0.51304C0.485296 0.52587 0.655901 0.55152 0.826401 0.56435ZM4.4338 1.15434C4.4338 1.16717 4.4469 1.17999 4.4469 1.17999C4.4994 1.52629 4.5519 1.85977 4.5912 2.19324C4.6044 2.30867 4.6175 2.41128 4.6962 2.50106C4.8667 2.7191 5.1291 2.69345 5.2471 2.46259C5.2996 2.34715 5.3127 2.23172 5.2865 2.10346C5.2078 1.71868 5.1684 1.3339 5.0897 0.96195C5.0372 0.73108 4.9717 0.51304 4.9061 0.30783C4.8667 0.17957 4.7749 0.0897801 4.6175 0.0769601C4.4601 0.0513101 4.342 0.12826 4.2764 0.2437C4.1977 0.3463 4.1321 0.44891 4.0796 0.56435C3.9878 0.76956 3.9091 0.97478 3.8042 1.16717C3.791 1.21847 3.7779 1.25695 3.7517 1.29542C3.7386 1.26977 3.7255 1.25695 3.7255 1.25695C3.5549 0.9363 3.3975 0.61565 3.227 0.30783C3.2007 0.28217 3.1876 0.25652 3.1745 0.23087C3.0958 0.11544 3.004 0.0513101 2.8597 0.0513101C2.7285 0.0641301 2.6235 0.14109 2.558 0.25652C2.5317 0.30783 2.5317 0.3463 2.5186 0.39761C2.4661 0.80804 2.4005 1.21847 2.3481 1.6289C2.3218 1.85977 2.3087 2.09063 2.3087 2.3215C2.2956 2.3728 2.3087 2.43693 2.3349 2.48824C2.3612 2.59084 2.4399 2.65498 2.5448 2.6678C2.676 2.68063 2.7678 2.64215 2.8072 2.53954C2.8465 2.46259 2.8597 2.39846 2.8728 2.33433C2.9253 2.10346 2.9646 1.88542 3.004 1.66738C3.0302 1.53912 3.04329 1.43651 3.0827 1.29542C3.1089 1.34673 3.1351 1.38521 3.1614 1.42368C3.2794 1.5776 3.3975 1.73151 3.5418 1.85977C3.6861 1.96237 3.8042 1.94955 3.9222 1.83411C3.9485 1.80846 3.9616 1.79564 3.9878 1.76998C4.1059 1.59042 4.2502 1.41086 4.3682 1.23129C4.3945 1.20564 4.4076 1.17999 4.4338 1.15434Z" fill="#4C1D95"/>
</svg>
