<svg width="31" height="31" viewBox="0 0 31 31" fill="none" xmlns="http://www.w3.org/2000/svg">
<path fill-rule="evenodd" clip-rule="evenodd" d="M2.86785 10.5546C2.90512 6.91935 5.79312 3.82397 9.50504 3.82397C11.7834 3.82397 13.4594 4.95173 14.5289 6.01356C14.8267 6.30922 15.0822 6.60412 15.2962 6.87605C15.5102 6.60412 15.7657 6.30922 16.0635 6.01356C17.133 4.95173 18.809 3.82397 21.0873 3.82397C24.7993 3.82397 27.6873 6.91935 27.7245 10.5546L27.7245 10.5548C27.7952 17.6449 22.0982 22.5499 16.3717 26.4369C16.0546 26.6527 15.6798 26.768 15.2962 26.768C14.9126 26.768 14.5378 26.6527 14.2207 26.4369C8.49364 22.5499 2.79651 17.6448 2.86785 10.5548L2.86785 10.5546ZM16.1501 9.03386C15.9877 9.35638 15.6574 9.55997 15.2962 9.55997C14.935 9.55997 14.6047 9.35639 14.4423 9.0339C14.4421 9.03351 14.4417 9.03274 14.4411 9.03162C14.44 9.02936 14.438 9.02564 14.4353 9.02053C14.4339 9.01782 14.4322 9.01471 14.4304 9.01123C14.4196 8.99109 14.4018 8.95829 14.3768 8.91461C14.3267 8.82714 14.2485 8.69687 14.1422 8.53808C13.9287 8.21893 13.6078 7.79345 13.1817 7.37038C12.3254 6.52022 11.1057 5.73597 9.50504 5.73597C6.91201 5.73597 4.80717 7.91523 4.77981 10.574M16.1501 9.03386C16.1503 9.03345 16.1507 9.03271 16.1513 9.03162C16.1531 9.02816 16.1566 9.02129 16.162 9.01123C16.1728 8.99109 16.1906 8.95829 16.2156 8.91461C16.2657 8.82714 16.3439 8.69687 16.4501 8.53808C16.6637 8.21893 16.9846 7.79345 17.4107 7.37038C18.267 6.52022 19.4867 5.73597 21.0873 5.73597C23.6804 5.73597 25.7852 7.91518 25.8126 10.5739C25.8721 16.5485 21.0737 20.9344 15.297 24.8555L15.2962 24.856L15.2953 24.8555C9.51807 20.9345 4.7198 16.5486 4.77981 10.5742" fill="white"/>
</svg>
